<?xml version="1.0" standalone="no"?>
<!DOCTYPE svg PUBLIC "-//W3C//DTD SVG 20010904//EN"
 "http://www.w3.org/TR/2001/REC-SVG-20010904/DTD/svg10.dtd">
<svg version="1.0" xmlns="http://www.w3.org/2000/svg"
 width="640.000000pt" height="640.000000pt" viewBox="0 0 640.000000 640.000000"
 preserveAspectRatio="xMidYMid meet">

<g transform="translate(0.000000,640.000000) scale(0.100000,-0.100000)"
fill="#000000" stroke="none">
<path d="M1437 4342 c-11 -12 -17 -35 -17 -65 0 -25 -4 -56 -9 -69 -5 -13 -14
-57 -20 -98 -7 -41 -21 -103 -33 -138 -15 -48 -18 -66 -9 -75 9 -9 16 -8 31 1
11 6 26 12 33 12 15 0 47 61 47 88 0 10 6 26 13 37 8 11 20 42 27 68 16 58 90
139 145 157 44 14 153 9 164 -8 9 -15 3 -103 -11 -157 -6 -22 -11 -61 -13 -87
-4 -65 -24 -242 -36 -308 -5 -30 -11 -89 -13 -130 -10 -189 -32 -274 -78 -304
-13 -8 -42 -18 -66 -22 -28 -4 -50 -16 -65 -33 -17 -21 -32 -27 -67 -28 -223
-6 -225 -7 -228 -31 -3 -18 2 -23 27 -28 25 -5 33 -14 41 -43 12 -45 13 -90 0
-127 -5 -16 -14 -76 -20 -134 -18 -165 -20 -180 -35 -260 -8 -41 -19 -109 -25
-150 -20 -158 -26 -172 -92 -205 -28 -14 -44 -29 -46 -43 -2 -12 0 -22 5 -22
4 0 115 -2 246 -4 254 -4 262 -3 237 43 -6 13 -21 21 -36 21 -31 0 -74 41 -75
72 -3 47 2 125 12 188 5 36 14 92 18 125 5 33 13 78 19 100 5 22 10 67 11 100
0 33 5 85 11 115 6 30 15 88 20 129 11 95 19 103 100 94 58 -6 69 -11 110 -49
l45 -43 0 -108 c0 -95 -3 -114 -25 -158 -36 -72 -89 -106 -177 -112 -55 -4
-72 -10 -82 -25 -30 -48 46 -60 229 -37 204 25 311 142 314 344 1 64 -2 75
-33 122 -19 28 -54 64 -78 79 -24 15 -43 29 -43 32 0 2 50 1 111 -3 100 -7
113 -10 139 -34 52 -49 51 -86 -12 -221 -17 -36 -37 -81 -46 -100 -8 -19 -19
-42 -24 -50 -26 -46 -88 -181 -88 -192 0 -8 -4 -18 -9 -24 -5 -5 -36 -68 -68
-141 -54 -122 -79 -159 -143 -216 -37 -32 -26 -47 38 -48 31 0 92 -2 135 -4
76 -3 77 -3 77 21 0 17 -9 28 -32 40 -75 38 -80 62 -31 162 l26 52 171 -1 c94
-1 191 -4 216 -8 l45 -6 19 -74 c22 -84 19 -95 -40 -126 -26 -13 -39 -27 -39
-40 0 -20 8 -20 408 -21 327 -1 410 1 414 11 8 23 -15 52 -45 58 -20 4 -33 15
-40 34 -7 19 -10 166 -9 453 l2 425 30 5 c56 10 158 -10 186 -37 53 -49 86
-171 70 -257 -19 -101 -77 -152 -186 -163 -27 -3 -54 -9 -59 -13 -10 -10 1
-30 18 -30 7 0 23 -26 36 -57 24 -60 75 -146 119 -199 14 -18 42 -51 61 -75
19 -24 48 -55 63 -69 16 -14 48 -43 73 -66 101 -93 260 -135 279 -73 5 16 -7
33 -52 77 -109 107 -166 195 -239 372 -14 36 -31 68 -38 72 -6 4 -29 8 -51 9
l-40 0 50 15 c73 22 115 43 161 81 69 56 94 101 113 205 21 115 49 172 92 187
47 16 124 14 139 -4 9 -11 16 -72 21 -178 5 -89 14 -245 20 -347 11 -157 13
-247 10 -320 -1 -19 -61 -60 -89 -60 -23 0 -57 -39 -44 -52 4 -4 128 -9 275
-10 l268 -3 -3 24 c-2 19 -13 28 -49 40 -60 21 -75 34 -93 84 -12 34 -29 216
-28 287 1 8 -3 65 -9 125 -13 157 -21 291 -23 360 l-1 60 55 6 c58 6 140 -18
140 -42 0 -6 8 -23 18 -37 10 -15 28 -61 40 -102 32 -106 52 -143 84 -154 15
-5 30 -7 34 -3 3 3 -1 43 -11 89 -24 116 -31 212 -14 206 7 -2 17 -17 22 -33
6 -16 14 -34 19 -40 16 -20 62 -91 92 -145 56 -97 70 -121 122 -201 35 -53 54
-92 57 -121 18 -151 27 -275 22 -295 -3 -14 -21 -30 -43 -41 -28 -13 -37 -23
-37 -42 l0 -25 227 0 c124 0 230 4 234 8 13 12 -9 40 -51 64 -21 12 -43 29
-48 39 -15 27 -35 127 -47 233 -10 89 -9 99 16 180 14 47 32 93 40 101 7 9 20
43 27 76 8 33 19 69 24 79 6 11 20 52 32 92 16 52 30 79 52 97 17 15 35 26 40
26 5 0 9 11 9 24 0 18 -5 24 -22 24 -13 0 -70 1 -128 3 -104 2 -105 2 -105
-20 0 -18 10 -27 45 -40 37 -13 46 -22 48 -44 4 -33 -32 -146 -119 -374 -5
-13 -14 -23 -21 -23 -15 0 -52 53 -63 90 -4 14 -18 36 -31 50 -12 14 -31 43
-41 65 -10 22 -26 51 -36 65 -71 99 -86 145 -54 161 9 5 25 13 35 18 9 4 17
19 17 32 0 22 -3 23 -68 22 -56 0 -70 3 -78 18 -5 10 -28 24 -52 30 -44 13
-94 43 -113 68 -7 9 -15 34 -18 56 -15 91 -26 182 -31 244 -3 36 -7 77 -10 91
-2 14 -6 57 -10 95 -3 39 -8 84 -11 100 -5 35 -22 219 -29 316 -6 85 4 94 90
92 84 -2 139 -30 195 -97 54 -67 67 -101 75 -210 6 -72 4 -90 -14 -130 -11
-25 -25 -46 -31 -46 -6 0 -23 -8 -37 -17 -40 -27 -93 -43 -139 -43 -48 0 -65
-15 -53 -47 8 -22 15 -23 106 -25 54 -1 107 -1 118 1 11 1 41 3 66 5 25 1 59
10 77 18 17 9 44 19 59 23 34 7 57 26 104 85 67 83 77 129 53 238 -16 74 -105
212 -137 212 -5 0 -21 9 -36 19 -81 58 -260 84 -521 75 -96 -3 -326 -5 -510
-5 -184 -1 -343 -3 -352 -5 -10 -3 -18 -11 -18 -18 0 -17 33 -46 52 -46 8 0
27 -9 41 -20 35 -28 35 -33 52 -620 3 -107 8 -214 11 -238 7 -54 -10 -106 -43
-132 -36 -28 -63 -24 -95 13 -16 18 -44 50 -63 71 -19 22 -35 45 -35 51 0 7
-7 19 -16 26 -16 13 -45 73 -91 189 -36 91 -43 98 -103 92 -33 -3 -50 -1 -50
7 0 6 9 11 21 11 25 0 110 26 164 50 55 24 120 92 140 145 13 32 16 66 13 132
-3 77 -7 93 -32 131 -32 47 -109 108 -147 116 -13 3 -57 14 -96 25 -85 23
-326 30 -574 17 -126 -7 -151 -5 -178 9 -28 14 -42 14 -109 5 -70 -10 -708
-15 -787 -6 -17 2 -55 7 -86 10 -46 6 -58 4 -72 -12z m1604 -75 c91 -24 137
-84 150 -194 22 -197 -46 -287 -228 -302 -61 -5 -78 -9 -81 -23 -2 -9 5 -19
17 -23 18 -5 41 -40 121 -181 47 -83 115 -167 211 -263 l96 -96 -183 -3 c-149
-2 -184 1 -184 11 0 27 -41 51 -93 56 -16 2 -37 72 -38 128 -1 32 1 159 5 283
3 124 8 305 10 403 3 98 8 187 11 198 5 16 16 19 73 19 37 0 88 -6 113 -13z
m1056 -13 c14 -9 25 -31 32 -66 10 -47 36 -369 47 -583 2 -44 8 -101 13 -126
12 -53 5 -163 -12 -199 -19 -39 -61 -55 -109 -41 -33 10 -43 20 -61 59 -13 30
-22 73 -23 117 -2 39 -6 79 -8 90 -3 11 -8 81 -11 155 -10 233 -14 303 -22
385 -15 167 -4 217 51 228 30 6 77 -2 103 -19z m-1784 -7 c31 -20 52 -58 61
-107 5 -35 7 -45 28 -152 13 -68 39 -100 76 -96 26 3 27 5 25 63 -5 116 -2
300 5 307 4 4 14 1 23 -5 26 -20 41 -56 34 -87 -9 -43 -24 -326 -28 -540 -1
-63 -5 -120 -9 -125 -3 -6 -7 -42 -9 -80 -3 -120 -31 -177 -93 -193 -17 -4
-35 -18 -41 -30 -11 -24 -42 -29 -142 -24 -55 3 -62 6 -65 25 -2 18 -15 25
-63 37 -49 12 -62 20 -74 44 -19 41 -24 137 -11 241 6 50 13 115 15 145 5 74
25 269 30 300 2 14 9 77 15 140 15 161 14 160 114 157 58 -1 90 -7 109 -20z
m454 -1102 c10 -9 28 -24 41 -33 28 -22 50 -104 41 -157 -4 -22 -8 -98 -9
-170 0 -71 -3 -170 -5 -220 -2 -49 -5 -141 -7 -202 -3 -101 -5 -115 -26 -135
-16 -17 -26 -20 -38 -13 -20 13 -59 88 -75 145 -7 25 -18 52 -25 60 -6 8 -14
29 -16 45 -6 31 -57 187 -89 265 -10 25 -27 77 -38 115 -11 39 -37 115 -57
170 -57 156 -60 144 32 147 161 6 251 0 271 -17z m-513 -240 c-3 -7 4 -33 15
-58 12 -25 21 -50 21 -56 0 -11 16 -63 51 -167 11 -33 21 -80 22 -104 l2 -43
-105 -4 c-58 -3 -133 -1 -167 2 -78 8 -80 17 -22 130 23 44 50 103 59 130 10
28 33 77 52 110 19 33 37 68 41 79 6 14 10 16 22 6 7 -6 12 -17 9 -25z"/>
</g>
</svg>
